{
  "accessors": [
    {
      "bufferView": 3,
      "componentType": 5126,
      "count": 347,
      "max": [
        3.4212839603424072,
        2.3940744400024414,
        1.9896117448806763
      ],
      "min": [
        2.5586037635803223,
        -0.0008571147918701172,
        -2.214683771133423
      ],
      "type": "VEC3"
    },
    {
      "bufferView": 3,
      "byteOffset": 4164,
      "componentType": 5126,
      "count": 347,
      "max": [
        1.0,
        1.0,
        1.0
      ],
      "min": [
        -1.0,
        -1.0,
        -1.0
      ],
      "type": "VEC3"
    },
    {
      "bufferView": 2,
      "componentType": 5126,
      "count": 347,
      "max": [
        0.9956415891647339,
        0.9941492676734924
      ],
      "min": [
        0.0,
        0.0
      ],
      "type": "VEC2"
    },
    {
      "bufferView": 1,
      "componentType": 5125,
      "count": 642,
      "type": "SCALAR"
    },
    {
      "bufferView": 3,
      "byteOffset": 8328,
      "componentType": 5126,
      "count": 121,
      "max": [
        3.2227017879486084,
        1.689365267753601,
        2.628200054168701
      ],
      "min": [
        2.5955963134765625,
        1.5585412979125977,
        1.9879937171936035
      ],
      "type": "VEC3"
    },
    {
      "bufferView": 3,
      "byteOffset": 9780,
      "componentType": 5126,
      "count": 121,
      "max": [
        1.0,
        1.0,
        1.0
      ],
      "min": [
        -1.0,
        -1.0,
        -1.0
      ],
      "type": "VEC3"
    },
    {
      "bufferView": 2,
      "byteOffset": 2776,
      "componentType": 5126,
      "count": 121,
      "max": [
        0.7332718968391418,
        0.986107587814331
      ],
      "min": [
        0.0,
        0.0
      ],
      "type": "VEC2"
    },
    {
      "bufferView": 1,
      "byteOffset": 2568,
      "componentType": 5125,
      "count": 216,
      "type": "SCALAR"
    },
    {
      "bufferView": 5,
      "componentType": 5126,
      "count": 15,
      "max": [
        1.0,
        2.0648386429497623e-14,
        1.0,
        0.0,
        0.7397075891494751,
        1.0,
        1.795059496282215e-14,
        0.0,
        0.9999220967292786,
        0.9987523555755615,
        1.0,
        0.0,
        1.358644723892212,
        0.5849862098693848,
        3.2176079750061035,
        1.0
      ],
      "min": [
        -1.7902017623297115e-14,
        0.0,
        -1.0,
        0.0,
        -0.9987523555755615,
        0.049937617033720016,
        -6.522888071423382e-15,
        0.0,
        -0.8012633919715881,
        -0.7397075891494751,
        1.7896869145285466e-16,
        0.0,
        -3.2176079750061035,
        -2.220396041870117,
        -2.9030826091766357,
        1.0
      ],
      "type": "MAT4"
    },
    {
      "bufferView": 0,
      "componentType": 5123,
      "count": 347,
      "type": "VEC4"
    },
    {
      "bufferView": 4,
      "componentType": 5126,
      "count": 347,
      "max": [
        1.0,
        0.4666054844856262,
        0.3234604299068451,
        0.0
      ],
      "min": [
        0.35158002376556396,
        0.0,
        0.0,
        0.0
      ],
      "type": "VEC4"
    },
    {
      "bufferView": 0,
      "byteOffset": 2776,
      "componentType": 5123,
      "count": 121,
      "type": "VEC4"
    },
    {
      "bufferView": 4,
      "byteOffset": 5552,
      "componentType": 5126,
      "count": 121,
      "max": [
        0.5,
        0.5,
        0.0441482849419117,
        0.0
      ],
      "min": [
        0.4779258668422699,
        0.4779258668422699,
        0.0,
        0.0
      ],
      "type": "VEC4"
    },
    {
      "bufferView": 6,
      "componentType": 5126,
      "count": 183,
      "max": [
        6.0
      ],
      "min": [
        0.0416666679084301
      ],
      "type": "SCALAR"
    },
    {
      "bufferView": 7,
      "componentType": 5126,
      "count": 183,
      "max": [
        0.07525823265314102,
        0.028202226385474205,
        0.4727182388305664,
        0.93540358543396
      ],
      "min": [
        -0.07516777515411377,
        -0.027959952130913734,
        0.3443466126918793,
        0.8812136054039001
      ],
      "type": "VEC4"
    },
    {
      "bufferView": 6,
      "byteOffset": 732,
      "componentType": 5126,
      "count": 190,
      "max": [
        6.0
      ],
      "min": [
        0.0416666679084301
      ],
      "type": "SCALAR"
    },
    {
      "bufferView": 7,
      "byteOffset": 2928,
      "componentType": 5126,
      "count": 190,
      "max": [
        8.249227615288266e-15,
        7.715958541586534e-15,
        0.9004035592079163,
        0.9257969260215759
      ],
      "min": [
        -4.440518556970887e-15,
        -8.022962245187067e-15,
        -0.8659490346908569,
        -0.49835196137428284
      ],
      "type": "VEC4"
    },
    {
      "bufferView": 6,
      "byteOffset": 1492,
      "componentType": 5126,
      "count": 190,
      "max": [
        6.0
      ],
      "min": [
        0.0416666679084301
      ],
      "type": "SCALAR"
    },
    {
      "bufferView": 7,
      "byteOffset": 5968,
      "componentType": 5126,
      "count": 190,
      "max": [
        8.25860765814616e-15,
        7.575938066174768e-15,
        0.8909078240394592,
        0.9336583018302917
      ],
      "min": [
        -4.485015738788997e-15,
        -7.805316282357127e-15,
        -0.8653725385665894,
        -0.49984562397003174
      ],
      "type": "VEC4"
    },
    {
      "bufferView": 6,
      "byteOffset": 2252,
      "componentType": 5126,
      "count": 190,
      "max": [
        6.0
      ],
      "min": [
        0.0416666679084301
      ],
      "type": "SCALAR"
    },
    {
      "bufferView": 7,
      "byteOffset": 9008,
      "componentType": 5126,
      "count": 190,
      "max": [
        8.25860765814616e-15,
        7.551351240814817e-15,
        0.8909078240394592,
        0.9336583018302917
      ],
      "min": [
        -4.485484148008829e-15,
        -7.805316282357127e-15,
        -0.8626318573951721,
        -0.4998991787433624
      ],
      "type": "VEC4"
    },
    {
      "bufferView": 6,
      "byteOffset": 3012,
      "componentType": 5126,
      "count": 190,
      "max": [
        6.0
      ],
      "min": [
        0.0416666679084301
      ],
      "type": "SCALAR"
    },
    {
      "bufferView": 7,
      "byteOffset": 12048,
      "componentType": 5126,
      "count": 190,
      "max": [
        8.249227615288266e-15,
        7.707679641560071e-15,
        0.9004035592079163,
        0.9257969260215759
      ],
      "min": [
        -4.407988680148059e-15,
        -8.022962245187067e-15,
        -0.8650199174880981,
        -0.49470117688179016
      ],
      "type": "VEC4"
    },
    {
      "bufferView": 6,
      "byteOffset": 3772,
      "componentType": 5126,
      "count": 190,
      "max": [
        6.0
      ],
      "min": [
        0.0416666679084301
      ],
      "type": "SCALAR"
    },
    {
      "bufferView": 7,
      "byteOffset": 15088,
      "componentType": 5126,
      "count": 190,
      "max": [
        0.5880239605903625,
        0.9999999403953552,
        8.960285516486886e-15,
        4.323232174548185e-18
      ],
      "min": [
        -0.003087687538936734,
        0.8088434934616089,
        7.116940229420082e-15,
        -5.252565231855322e-15
      ],
      "type": "VEC4"
    }
  ],
  "animations": [
    {
      "channels": [
        {
          "sampler": 0,
          "target": {
            "node": 11,
            "path": "rotation"
          }
        },
        {
          "sampler": 1,
          "target": {
            "node": 14,
            "path": "rotation"
          }
        },
        {
          "sampler": 2,
          "target": {
            "node": 16,
            "path": "rotation"
          }
        },
        {
          "sampler": 3,
          "target": {
            "node": 18,
            "path": "rotation"
          }
        },
        {
          "sampler": 4,
          "target": {
            "node": 20,
            "path": "rotation"
          }
        },
        {
          "sampler": 5,
          "target": {
            "node": 22,
            "path": "rotation"
          }
        }
      ],
      "name": "Take 001",
      "samplers": [
        {
          "input": 13,
          "interpolation": "LINEAR",
          "output": 14
        },
        {
          "input": 15,
          "interpolation": "LINEAR",
          "output": 16
        },
        {
          "input": 17,
          "interpolation": "LINEAR",
          "output": 18
        },
        {
          "input": 19,
          "interpolation": "LINEAR",
          "output": 20
        },
        {
          "input": 21,
          "interpolation": "LINEAR",
          "output": 22
        },
        {
          "input": 23,
          "interpolation": "LINEAR",
          "output": 24
        }
      ]
    }
  ],
  "asset": {
    "extras": {
      "author": "Bluenoseddonkey (https://sketchfab.com/Bluenoseddonkey)",
      "license": "CC-BY-4.0 (http://creativecommons.org/licenses/by/4.0/)",
      "source": "https://sketchfab.com/3d-models/cat-with-a-gun-70df1c27fc424871b8fce0925e1d4429",
      "title": "Cat with a gun"
    },
    "generator": "Sketchfab-13.42.0",
    "version": "2.0"
  },
  "bufferViews": [
    {
      "buffer": 0,
      "byteLength": 3744,
      "byteStride": 8,
      "name": "shortBufferViews",
      "target": 34962
    },
    {
      "buffer": 0,
      "byteLength": 3432,
      "byteOffset": 3744,
      "name": "floatBufferViews",
      "target": 34963
    },
    {
      "buffer": 0,
      "byteLength": 3744,
      "byteOffset": 7176,
      "byteStride": 8,
      "name": "floatBufferViews",
      "target": 34962
    },
    {
      "buffer": 0,
      "byteLength": 11232,
      "byteOffset": 10920,
      "byteStride": 12,
      "name": "floatBufferViews",
      "target": 34962
    },
    {
      "buffer": 0,
      "byteLength": 7488,
      "byteOffset": 22152,
      "byteStride": 16,
      "name": "floatBufferViews",
      "target": 34962
    },
    {
      "buffer": 0,
      "byteLength": 960,
      "byteOffset": 29640,
      "name": "floatBufferViews"
    },
    {
      "buffer": 0,
      "byteLength": 4532,
      "byteOffset": 30600,
      "name": "floatBufferViews"
    },
    {
      "buffer": 0,
      "byteLength": 18128,
      "byteOffset": 35132,
      "byteStride": 16,
      "name": "floatBufferViews"
    }
  ],
  "buffers": [
    {
      "byteLength": 53260,
      "uri": "scene.bin"
    }
  ],
  "images": [
    {
      "uri": "textures/base_baseColor.png"
    },
    {
      "uri": "textures/GunBase_baseColor.png"
    }
  ],
  "materials": [
    {
      "doubleSided": true,
      "name": "base",
      "pbrMetallicRoughness": {
        "baseColorTexture": {
          "index": 0
        },
        "metallicFactor": 0.0,
        "roughnessFactor": 0.6
      }
    },
    {
      "doubleSided": true,
      "name": "GunBase",
      "pbrMetallicRoughness": {
        "baseColorTexture": {
          "index": 1
        },
        "metallicFactor": 0.0,
        "roughnessFactor": 0.6
      }
    }
  ],
  "meshes": [
    {
      "name": "CrapCat_base_0",
      "primitives": [
        {
          "attributes": {
            "JOINTS_0": 9,
            "NORMAL": 1,
            "POSITION": 0,
            "TEXCOORD_0": 2,
            "WEIGHTS_0": 10
          },
          "indices": 3,
          "material": 0,
          "mode": 4
        }
      ]
    },
    {
      "name": "CrapCatGun_GunBase_0",
      "primitives": [
        {
          "attributes": {
            "JOINTS_0": 11,
            "NORMAL": 5,
            "POSITION": 4,
            "TEXCOORD_0": 6,
            "WEIGHTS_0": 12
          },
          "indices": 7,
          "material": 1,
          "mode": 4
        }
      ]
    }
  ],
  "nodes": [
    {
      "children": [
        1
      ],
      "matrix": [
        1.0,
        0.0,
        0.0,
        0.0,
        0.0,
        2.220446049250313e-16,
        -1.0,
        0.0,
        0.0,
        1.0,
        2.220446049250313e-16,
        0.0,
        0.0,
        0.0,
        0.0,
        1.0
      ],
      "name": "Sketchfab_model"
    },
    {
      "children": [
        2
      ],
      "matrix": [
        0.009999999776482582,
        0.0,
        0.0,
        0.0,
        0.0,
        0.0,
        0.009999999776482582,
        0.0,
        0.0,
        -0.009999999776482582,
        0.0,
        0.0,
        0.0,
        0.0,
        0.0,
        1.0
      ],
      "name": "ae29710f336246cea02e9611cdd4757b.fbx"
    },
    {
      "children": [
        3
      ],
      "name": "Object_2"
    },
    {
      "children": [
        4
      ],
      "name": "RootNode"
    },
    {
      "children": [
        5,
        7,
        9,
        6,
        8,
        24
      ],
      "name": "Object_4"
    },
    {
      "children": [
        10
      ],
      "name": "_rootJoint"
    },
    {
      "matrix": [
        1.0,
        0.0,
        4.930380657631324e-32,
        0.0,
        -1.948655332453627e-61,
        1.0,
        3.9523425629164484e-30,
        0.0,
        -4.930380657631324e-32,
        -3.9523425629164484e-30,
        1.0,
        0.0,
        0.0,
        0.0,
        0.0,
        1.0
      ],
      "name": "Object_6"
    },
    {
      "mesh": 0,
      "name": "Object_7",
      "skin": 0
    },
    {
      "matrix": [
        1.0,
        0.0,
        1.2079432611196743e-30,
        0.0,
        -4.519676751882438e-60,
        1.0,
        3.741630006440063e-30,
        0.0,
        -1.2079432611196743e-30,
        -3.741630006440063e-30,
        1.0,
        0.0,
        0.0,
        0.0,
        0.0,
        1.0
      ],
      "name": "Object_8"
    },
    {
      "mesh": 1,
      "name": "Object_9",
      "skin": 0
    },
    {
      "children": [
        11,
        14,
        16,
        18,
        20,
        22
      ],
      "name": "Main_00",
      "rotation": [
        0.00441364198923111,
        -0.7070930004119873,
        -0.00441364198923111,
        0.7070930004119873
      ],
      "translation": [
        2.9030826091766357,
        1.3682957887649536,
        -1.3416682481765747
      ]
    },
    {
      "children": [
        12
      ],
      "name": "Neck_01",
      "rotation": [
        -1.9461129002722103e-30,
        -7.308251090886939e-15,
        0.4100963771343231,
        0.9120422005653381
      ],
      "translation": [
        2.3456544876098633,
        4.440892098500626e-16,
        4.440892098500626e-16
      ]
    },
    {
      "children": [
        13
      ],
      "name": "joint3_02",
      "rotation": [
        5.596890068777789e-32,
        1.420401195953761e-15,
        -0.47327566146850586,
        0.8809145092964172
      ],
      "translation": [
        0.5700331330299377,
        1.1102230246251565e-16,
        7.549516567451064e-15
      ]
    },
    {
      "name": "joint4_03",
      "rotation": [
        -0.05417322367429733,
        0.7050285935401917,
        0.05417322367429733,
        0.7050285935401917
      ],
      "translation": [
        0.613332986831665,
        -2.220446049250313e-16,
        -1.3322676295501878e-15
      ]
    },
    {
      "children": [
        15
      ],
      "name": "LeftBackLeg_04",
      "rotation": [
        6.494218547257666e-15,
        6.1008589876516105e-15,
        -0.6846891641616821,
        0.7288352251052856
      ],
      "translation": [
        0.7248049974441528,
        -0.5883463621139526,
        -0.3145253658294678
      ]
    },
    {
      "name": "joint8_05",
      "rotation": [
        -0.48735570907592773,
        0.5123323202133179,
        0.48735570907592773,
        0.5123323202133179
      ],
      "translation": [
        0.7622776627540588,
        -3.3306690738754696e-16,
        0.0
      ]
    },
    {
      "children": [
        17
      ],
      "name": "LeftFrontLeg_06",
      "rotation": [
        6.6109587456306216e-15,
        5.822917407987847e-15,
        -0.6689691543579102,
        0.7432902455329895
      ],
      "translation": [
        2.001208782196045,
        -0.5577691793441772,
        -0.3145253658294678
      ]
    },
    {
      "name": "joint10_07",
      "rotation": [
        -0.47630399465560913,
        0.5226227045059204,
        0.47630399465560913,
        0.5226227045059204
      ],
      "translation": [
        0.7910746335983276,
        -2.220446049250313e-16,
        0.0
      ]
    },
    {
      "children": [
        19
      ],
      "name": "RightFrontLeg_08",
      "rotation": [
        6.6109587456306216e-15,
        5.822917407987847e-15,
        -0.6689691543579102,
        0.7432902455329895
      ],
      "translation": [
        2.001208782196045,
        -0.5577691793441772,
        0.2114994376897812
      ]
    },
    {
      "name": "joint10_09",
      "rotation": [
        -0.47630399465560913,
        0.5226227045059204,
        0.47630399465560913,
        0.5226227045059204
      ],
      "translation": [
        0.7910746335983276,
        -2.220446049250313e-16,
        0.0
      ]
    },
    {
      "children": [
        21
      ],
      "name": "RightBackLeg_010",
      "rotation": [
        6.494218547257666e-15,
        6.1008589876516105e-15,
        -0.6846891641616821,
        0.7288352251052856
      ],
      "translation": [
        0.7248049974441528,
        -0.5883463621139526,
        0.2114994376897812
      ]
    },
    {
      "name": "joint8_011",
      "rotation": [
        -0.48735570907592773,
        0.5123323202133179,
        0.48735570907592773,
        0.5123323202133179
      ],
      "translation": [
        0.7622776627540588,
        -3.3306690738754696e-16,
        0.0
      ]
    },
    {
      "children": [
        23
      ],
      "name": "Tail_012",
      "rotation": [
        0.309297651052475,
        0.9509652853012085,
        8.436477800805985e-15,
        -2.768005415805172e-15
      ],
      "translation": [
        0.07671524584293365,
        0.1883758157491684,
        2.220446049250313e-15
      ]
    },
    {
      "name": "joint6_013",
      "rotation": [
        -0.2228994369506836,
        -0.671055793762207,
        -0.2228994369506836,
        0.671055793762207
      ],
      "translation": [
        1.110953688621521,
        -7.771561172376096e-16,
        0.0
      ]
    },
    {
      "children": [
        25,
        26
      ],
      "name": "CrapCat"
    },
    {
      "name": "CrapCat"
    },
    {
      "name": "CrapCatGun"
    }
  ],
  "samplers": [
    {
      "magFilter": 9729,
      "minFilter": 9987,
      "wrapS": 10497,
      "wrapT": 10497
    }
  ],
  "scene": 0,
  "scenes": [
    {
      "name": "Sketchfab_Scene",
      "nodes": [
        0
      ]
    }
  ],
  "skins": [
    {
      "inverseBindMatrices": 8,
      "joints": [
        5,
        10,
        11,
        12,
        13,
        14,
        15,
        16,
        17,
        18,
        19,
        20,
        21,
        22,
        23
      ],
      "skeleton": 5
    }
  ],
  "textures": [
    {
      "sampler": 0,
      "source": 0
    },
    {
      "sampler": 0,
      "source": 1
    }
  ]
}
